<svg width="286" height="75" viewBox="0 0 286 75" fill="none" xmlns="http://www.w3.org/2000/svg">
<g opacity="0.9">
<path fill-rule="evenodd" clip-rule="evenodd" d="M112.154 0.187903C112.469 0.0705746 112.821 0.118878 113.092 0.316513L176.088 46.1996C176.347 46.3883 176.68 46.4414 176.985 46.3424L272.544 15.3103C273.071 15.1392 273.637 15.4292 273.806 15.957L285.158 51.4801C285.34 52.0495 284.985 52.6504 284.399 52.7657L171.759 74.9159C171.486 74.9695 171.203 74.9072 170.978 74.7438L108.387 29.2807C108.142 29.1032 107.83 29.0457 107.539 29.1243L28.9508 50.2942C28.5143 50.4118 28.2109 50.8077 28.2109 51.2598V64.6887C28.2109 65.5646 27.1647 66.0172 26.5263 65.4175L0.768702 41.2221C0.350937 40.8297 0.347843 40.1671 0.761928 39.7708L26.5195 15.1188C27.1555 14.5101 28.2109 14.9609 28.2109 15.8413V30.062C28.2109 30.7595 28.907 31.2427 29.5605 30.9989L112.154 0.187903Z" fill="#FFC107"/>
<path fill-rule="evenodd" clip-rule="evenodd" d="M112.154 0.187903C112.469 0.0705746 112.821 0.118878 113.092 0.316513L176.088 46.1996C176.347 46.3883 176.68 46.4414 176.985 46.3424L272.544 15.3103C273.071 15.1392 273.637 15.4292 273.806 15.957L285.158 51.4801C285.34 52.0495 284.985 52.6504 284.399 52.7657L171.759 74.9159C171.486 74.9695 171.203 74.9072 170.978 74.7438L108.387 29.2807C108.142 29.1032 107.83 29.0457 107.539 29.1243L28.9508 50.2942C28.5143 50.4118 28.2109 50.8077 28.2109 51.2598V64.6887C28.2109 65.5646 27.1647 66.0172 26.5263 65.4175L0.768702 41.2221C0.350937 40.8297 0.347843 40.1671 0.761928 39.7708L26.5195 15.1188C27.1555 14.5101 28.2109 14.9609 28.2109 15.8413V30.062C28.2109 30.7595 28.907 31.2427 29.5605 30.9989L112.154 0.187903Z" fill="url(#paint0_linear_5_97)" fill-opacity="0.1"/>
</g>
<defs>
<linearGradient id="paint0_linear_5_97" x1="1" y1="40.5001" x2="285.5" y2="35.0001" gradientUnits="userSpaceOnUse">
<stop offset="0.107292" stop-color="#FFC107"/>
<stop offset="1" stop-color="#B78900"/>
</linearGradient>
</defs>
</svg>
