<?xml version="1.0" encoding="UTF-8" standalone="no"?>
<!--part of the matt icon theme by sixsixfive released under CC0 (https://creativecommons.org/publicdomain/zero/1.0/) on openclipart-->
<svg xmlns="http://www.w3.org/2000/svg" xmlns:xlink="http://www.w3.org/1999/xlink" viewBox="0 0 128 128">
 <defs id="0">
  <linearGradient id="7">
   <stop id="N" stop-color="#bcbcbc"/>
   <stop id="O" offset="1" stop-color="#989898"/>
  </linearGradient>
  <linearGradient id="8">
   <stop id="P" stop-color="#fefefe"/>
   <stop id="Q" offset="1" stop-color="#e1e1e1"/>
  </linearGradient>
  <linearGradient id="9">
   <stop id="R" stop-color="#505050"/>
   <stop offset="1" id="S" stop-color="#272727"/>
  </linearGradient>
  <linearGradient xlink:href="#7" id="A" gradientUnits="userSpaceOnUse" y1="620.96" x2="0" y2="644.08"/>
  <linearGradient xlink:href="#9" id="B" gradientUnits="userSpaceOnUse" y1="620.96" x2="0" y2="644.08"/>
  <linearGradient xlink:href="#8" id="C" gradientUnits="userSpaceOnUse" y1="620.96" x2="0" y2="644.08"/>
 </defs>
 <text x="-828.23" y="-458.93" id="1" font-size="28"><tspan x="-828.23" y="-458.93" id="D"/>
 </text>
 <text x="-828.23" y="-458.93" id="2" font-size="28"><tspan x="-828.23" y="-458.93" id="E"/>
 </text>
 <text x="1632.44" y="-609.18" id="3" font-size="28"><tspan x="1632.44" y="-609.18" id="F"/>
 </text>
 <text x="1632.44" y="-609.18" id="4" font-size="28"><tspan x="1632.44" y="-609.18" id="G"/>
 </text>
 <g id="5" transform="matrix(0.8105041,0,0,0.8105041,-146.10026,36.121818)">
  <path id="H" d="M 193.20793,-27.607242 C 190.83805,-27.607242 188.02555,-26.952702 186.95793,-26.169742 C 185.06841,-24.784022 185.03429,-23.197682 185.33293,34.049007 C 185.60525,86.248347 184.55908,93.075297 185.97761,94.642757 C 187.03807,95.814547 190.29359,96.392757 193.17668,96.392757 L 197.52043,96.392757 L 197.52043,34.392757 L 197.52043,-27.607242 L 193.20793,-27.607242 z" fill="#323232"/>
  <path id="I" d="M 202.53096,-27.600553 L 202.53096,34.399447 L 202.53096,96.399447 L 263.31221,96.399447 C 280.90744,96.399437 293.4244,96.348247 302.90596,96.243197 C 303.08357,96.303587 303.26998,96.336947 303.46846,96.336947 L 331.49971,96.336947 C 332.46883,96.336947 333.24971,95.556057 333.24971,94.586947 L 333.24971,-25.850553 C 333.24972,-26.819665 332.46882,-27.600553 331.49971,-27.600553 L 303.46846,-27.600553 C 303.21066,-27.600555 302.96972,-27.543653 302.74971,-27.444303 C 293.31295,-27.551625 280.59843,-27.600553 263.31221,-27.600553 L 202.53096,-27.600553 z M 264.68721,-15.600553 C 292.28722,-15.600553 314.68721,6.7994473 314.68721,34.399447 C 314.68722,61.999437 292.28721,84.399447 264.68721,84.399447 C 237.08722,84.399437 214.68721,61.999447 214.68721,34.399447 C 214.68722,6.7994373 237.08721,-15.600553 264.68721,-15.600553 z" fill="#323232"/>
  <path id="J" d="M 264.03096,14.024447 C 256.35375,14.286677 249.31057,18.875027 246.06221,26.649447 C 241.72337,37.033767 247.06833,49.235377 258.03096,54.024447 C 262.12814,55.814307 266.66516,55.707537 271.74971,53.743197 C 288.73341,47.181787 290.4584,24.524387 274.59346,16.430697 C 271.12746,14.662457 267.5206,13.905247 264.03096,14.024447 z M 265.09346,23.399447 C 277.00924,23.399437 280.86318,39.693537 270.15596,44.774447 C 266.3922,46.560457 264.09954,46.715567 261.03096,45.430697 C 249.18174,40.469217 252.32989,23.399447 265.09346,23.399447 z" fill="#323232"/>
 </g>
 <g transform="matrix(0.8105041,0,0,0.8105041,-146.10026,36.121818)" id="6">
  <path d="M 193.20793,-27.607242 C 190.83805,-27.607242 188.02555,-26.952702 186.95793,-26.169742 C 185.06841,-24.784022 185.03429,-23.197682 185.33293,34.049007 C 185.60525,86.248347 184.55908,93.075297 185.97761,94.642757 C 187.03807,95.814547 190.29359,96.392757 193.17668,96.392757 L 197.52043,96.392757 L 197.52043,34.392757 L 197.52043,-27.607242 L 193.20793,-27.607242 z" id="K" fill="#323232"/>
  <path d="M 202.53096,-27.600553 L 202.53096,34.399447 L 202.53096,96.399447 L 263.31221,96.399447 C 280.90744,96.399437 293.4244,96.348247 302.90596,96.243197 C 303.08357,96.303587 303.26998,96.336947 303.46846,96.336947 L 331.49971,96.336947 C 332.46883,96.336947 333.24971,95.556057 333.24971,94.586947 L 333.24971,-25.850553 C 333.24972,-26.819665 332.46882,-27.600553 331.49971,-27.600553 L 303.46846,-27.600553 C 303.21066,-27.600555 302.96972,-27.543653 302.74971,-27.444303 C 293.31295,-27.551625 280.59843,-27.600553 263.31221,-27.600553 L 202.53096,-27.600553 z M 264.68721,-15.600553 C 292.28722,-15.600553 314.68721,6.7994473 314.68721,34.399447 C 314.68722,61.999437 292.28721,84.399447 264.68721,84.399447 C 237.08722,84.399437 214.68721,61.999447 214.68721,34.399447 C 214.68722,6.7994373 237.08721,-15.600553 264.68721,-15.600553 z" id="L" fill="#323232"/>
  <path d="M 264.03096,14.024447 C 256.35375,14.286677 249.31057,18.875027 246.06221,26.649447 C 241.72337,37.033767 247.06833,49.235377 258.03096,54.024447 C 262.12814,55.814307 266.66516,55.707537 271.74971,53.743197 C 288.73341,47.181787 290.4584,24.524387 274.59346,16.430697 C 271.12746,14.662457 267.5206,13.905247 264.03096,14.024447 z M 265.09346,23.399447 C 277.00924,23.399437 280.86318,39.693537 270.15596,44.774447 C 266.3922,46.560457 264.09954,46.715567 261.03096,45.430697 C 249.18174,40.469217 252.32989,23.399447 265.09346,23.399447 z" id="M" fill="#323232"/>
 </g>
</svg>
